<svg width="67" height="61" viewBox="0 0 67 61" fill="none" xmlns="http://www.w3.org/2000/svg">
<path d="M4.72831 21.0637C4.95745 20.8346 6.32905 20.0326 8.25377 20.0326L27.2979 19.8035L31.9951 11.4401C29.4109 11.4401 20.976 11.4401 15.5585 11.4401C12.5949 11.4401 9.84123 12.9602 8.25982 15.4666L4.72831 21.0637Z" fill="#3498DB"/>
<path d="M21.1113 30.8018L15.4975 21.522H8.28643C7.21148 21.522 6.53756 22.6832 7.07089 23.6166L16.8723 40.7691C16.7196 40.0435 16.7807 37.9737 18.2471 35.4991C19.7136 33.0244 20.7676 31.3365 21.1113 30.8018Z" fill="#3498DB"/>
<path d="M27.4124 60.9328C27.0306 60.78 26.0147 60.0163 25.0065 58.1832C24.0399 56.4256 11.375 34.7965 4.7456 23.3907C4.38205 22.7652 3.47986 22.7798 3.12712 23.4114L1.61965 26.1108C-0.00202674 29.0148 0.044219 32.5623 1.74105 35.423L13.8216 55.7895C15.7128 58.9779 19.1452 60.9328 22.8524 60.9328H27.4124Z" fill="#3498DB"/>
<path d="M22.8298 51.0801C22.7152 50.3927 23.0818 48.0326 25.0065 44.5498C26.6255 41.6202 33.843 29.0014 38.8452 20.1798C40.4321 17.3812 40.4537 13.9634 38.9131 11.139L36.5777 6.85747L19.6859 36.8654C18.0872 39.7053 18.1293 43.1833 19.7963 45.9837L22.8298 51.0801Z" fill="#3498DB"/>
<path d="M41.8478 16.1373L44.3717 20.3965C46.211 23.5002 46.2423 27.3524 44.4537 30.4856L31.1931 53.7151C30.5821 55.2427 29.9558 58.8248 32.3388 60.9328C28.4435 60.0163 20.9967 54.5171 25.8085 45.9246L41.5041 18.4287C41.695 17.9322 42.0311 16.5956 41.8478 16.1373Z" fill="#3498DB"/>
<path d="M62.0115 40.8837C60.293 41.6856 59.3764 42.0293 57.4288 42.0293H39.7856L34.9738 50.3927L51.5905 50.213C54.4443 50.1822 57.0873 48.7044 58.608 46.2892L62.0115 40.8837Z" fill="#3498DB"/>
<path d="M47.1204 21.7511H51.2448L60.1784 37.5612C60.4075 37.9431 60.7054 38.7986 60.5221 39.1652C60.293 39.6234 59.3764 40.3108 57.4288 40.3108H51.8151L46.545 30.4581C47.4615 28.1668 48.6097 24.5007 47.1204 21.7511Z" fill="#3498DB"/>
<path d="M53.0753 21.7511H58.574C60.9476 21.7511 63.1676 22.9251 64.5037 24.887C67.1521 28.7758 66.841 33.9623 63.7467 37.5066L63.3321 37.9816C63.0226 38.336 62.4559 38.2788 62.2236 37.8695L53.0753 21.7511Z" fill="#3498DB"/>
<path d="M62.0115 20.6054L58.8591 15.2397C57.4762 12.8858 54.9502 11.4401 52.2201 11.4401H41.3895L46.2013 19.918H56.9705C58.4599 19.918 61.3241 20.2617 62.0115 20.6054Z" fill="#3498DB"/>
<path d="M11.4877 10.2945C11.7169 10.0653 12.6563 9.60707 14.581 9.60707H33.0262C33.3699 8.95786 34.1489 7.43031 34.5156 6.51377C34.9738 5.36811 34.7447 3.76418 34.0573 2.38939C33.5074 1.28955 31.8041 1.01459 31.0786 0.900024H22.623C18.8056 0.900024 15.3034 3.01801 13.5306 6.39874L11.4877 10.2945Z" fill="#3498DB"/>
<path d="M56.054 10.409L53.4524 5.91042C51.6592 2.80963 48.3489 0.900024 44.7669 0.900024H35.2029L40.2439 9.60707H50.5548C52.3879 9.60707 54.1064 9.60707 56.054 10.409Z" fill="#3498DB"/>
<path d="M55.7103 51.5383C53.9918 52.3403 53.7627 52.3403 51.8151 52.3403H33.9427L32.6825 55.319C32.5297 55.7773 32.1326 58.0686 32.6825 58.9852C33.3699 60.1308 34.0573 60.9328 35.2029 60.9328H44.9411C47.9198 60.9328 51.0798 58.9018 52.3879 57.2667C53.696 55.6315 55.0229 52.684 55.7103 51.5383Z" fill="#3498DB"/>
</svg>
